name rise38.3101peak57.3503fall81.6963.mot
datacolumns 19
datarows 32
range 16.69660700000000 16.74827400000000
endheader
time	ground_force1_vx	ground_force1_vy	ground_force1_vz	ground_force1_px	ground_force1_py	ground_force1_pz	ground_force2_vx	ground_force2_vy	ground_force2_vz	ground_force2_px	ground_force2_py	ground_force2_pz	ground_torque1_x	ground_torque1_y	ground_torque1_z	ground_torque2_x	ground_torque2_y	ground_torque2_z	
16.69660700000000	-7.53561000000000	42.11394400000000	-9.93979300000000	0.30245700000000	0.00000000000000	0.10010000000000	-55.69532400000000	799.71129099999996	-68.84260700000000	0.12383800000000	0.00000000000000	-0.09058000000000	0.00000000000000	-6.47200100000000	0.00000000000000	0.00000000000000	-26.01459600000000	0.00000000000000	
16.69827200000000	-8.17622900000000	49.58554500000000	-11.14762000000000	0.31077700000000	0.00000000000000	0.10124100000000	-56.14160700000000	796.70516699999996	-68.48512599999999	0.12317300000000	0.00000000000000	-0.09051800000000	0.00000000000000	-7.39823000000000	0.00000000000000	0.00000000000000	-25.91499300000000	0.00000000000000	
16.69994600000000	-8.64890800000000	57.21421500000000	-12.23367800000000	0.31823800000000	0.00000000000000	0.10227300000000	-56.58083000000000	793.49676299999999	-68.08444900000001	0.12252400000000	0.00000000000000	-0.09045000000000	0.00000000000000	-8.26924100000000	0.00000000000000	0.00000000000000	-25.80905300000000	0.00000000000000	
16.70161400000000	-8.93228500000000	64.90812400000000	-13.17129800000000	0.32497400000000	0.00000000000000	0.10321300000000	-57.01241600000000	790.08377399999995	-67.64033100000000	0.12189300000000	0.00000000000000	-0.09037500000000	0.00000000000000	-9.06458600000000	0.00000000000000	0.00000000000000	-25.69675600000000	0.00000000000000	
16.70327300000000	-9.01399300000000	72.59695600000001	-13.94288000000000	0.33108900000000	0.00000000000000	0.10407600000000	-57.43576100000000	786.46404900000005	-67.15261500000000	0.12127800000000	0.00000000000000	-0.09029400000000	0.00000000000000	-9.76956900000000	0.00000000000000	0.00000000000000	-25.57808200000000	0.00000000000000	
16.70494300000000	-8.89046900000000	80.23427200000000	-14.53998900000000	0.33666900000000	0.00000000000000	0.10487400000000	-57.85022800000000	782.63558799999998	-66.62123200000001	0.12068000000000	0.00000000000000	-0.09020600000000	0.00000000000000	-10.37555700000000	0.00000000000000	0.00000000000000	-25.45301000000000	0.00000000000000	
16.70662100000000	-8.56607400000000	87.79752100000000	-14.96269000000000	0.34178100000000	0.00000000000000	0.10561400000000	-58.25514600000000	778.59655299999997	-66.04620199999999	0.12010000000000	0.00000000000000	-0.09011200000000	0.00000000000000	-10.87974000000000	0.00000000000000	0.00000000000000	-25.32152300000000	0.00000000000000	
16.70827100000000	-8.05172600000000	95.28607400000000	-15.21830000000000	0.34648100000000	0.00000000000000	0.10630600000000	-58.64981700000000	774.34527400000002	-65.42764099999999	0.11953700000000	0.00000000000000	-0.09001100000000	0.00000000000000	-11.28446500000000	0.00000000000000	0.00000000000000	-25.18360100000000	0.00000000000000	
16.70994300000000	-7.36322200000000	102.71778900000000	-15.31976700000000	0.35081700000000	0.00000000000000	0.10695400000000	-59.03350900000000	769.88025700000003	-64.76575300000000	0.11899200000000	0.00000000000000	-0.08990300000000	0.00000000000000	-11.59623800000000	0.00000000000000	0.00000000000000	-25.03922800000000	0.00000000000000	
16.71161100000000	-6.51946800000000	110.12464199999999	-15.28386200000000	0.35482700000000	0.00000000000000	0.10756500000000	-59.40546200000000	765.20018900000002	-64.06084100000000	0.11846500000000	0.00000000000000	-0.08978900000000	0.00000000000000	-11.82457600000000	0.00000000000000	0.00000000000000	-24.88838600000000	0.00000000000000	
16.71327700000000	-5.54075200000000	117.54796100000000	-15.12938700000000	0.35854500000000	0.00000000000000	0.10814200000000	-59.76488400000000	760.30394799999999	-63.31330100000000	0.11795600000000	0.00000000000000	-0.08966700000000	0.00000000000000	-11.98079500000000	0.00000000000000	0.00000000000000	-24.73105900000000	0.00000000000000	
16.71494000000000	-4.44721500000000	125.03370900000000	-14.87551900000000	0.36199800000000	0.00000000000000	0.10868900000000	-60.11095700000000	755.19061499999998	-62.52362300000000	0.11746400000000	0.00000000000000	-0.08953900000000	0.00000000000000	-12.07687100000000	0.00000000000000	0.00000000000000	-24.56723200000000	0.00000000000000	
16.71662200000000	-3.25759300000000	132.62818200000001	-14.54041800000000	0.36521000000000	0.00000000000000	0.10920900000000	-60.44283400000000	749.85948099999996	-61.69239600000000	0.11699000000000	0.00000000000000	-0.08940400000000	0.00000000000000	-12.12444100000000	0.00000000000000	0.00000000000000	-24.39689100000000	0.00000000000000	
16.71827900000000	-1.98828800000000	140.37439599999999	-14.14014900000000	0.36820300000000	0.00000000000000	0.10970400000000	-60.75964100000000	744.31005800000003	-60.82030200000000	0.11653500000000	0.00000000000000	-0.08926300000000	0.00000000000000	-12.13400400000000	0.00000000000000	0.00000000000000	-24.22002100000000	0.00000000000000	
16.71993700000000	-0.65278600000000	148.30931899999999	-13.68795800000000	0.37099300000000	0.00000000000000	0.11017700000000	-61.06048300000000	738.54208900000003	-59.90811900000000	0.11609700000000	0.00000000000000	-0.08911400000000	0.00000000000000	-12.11435100000000	0.00000000000000	0.00000000000000	-24.03661200000000	0.00000000000000	
16.72161500000000	0.73860300000000	156.46200300000001	-13.19388700000000	0.37359700000000	0.00000000000000	0.11063000000000	-61.34443800000000	732.55556200000001	-58.95672000000000	0.11567700000000	0.00000000000000	-0.08895800000000	0.00000000000000	-12.07223300000000	0.00000000000000	0.00000000000000	-23.84665300000000	0.00000000000000	
16.72327800000000	2.17871500000000	164.85260000000000	-12.66470200000000	0.37602900000000	0.00000000000000	0.11106400000000	-61.61056500000000	726.35071400000004	-57.96707100000000	0.11527500000000	0.00000000000000	-0.08879600000000	0.00000000000000	-12.01224100000000	0.00000000000000	0.00000000000000	-23.65013600000000	0.00000000000000	
16.72494600000000	3.66326400000000	173.49217899999999	-12.10408000000000	0.37830000000000	0.00000000000000	0.11148100000000	-61.85790400000000	719.92804599999999	-56.94023000000000	0.11489200000000	0.00000000000000	-0.08862600000000	0.00000000000000	-11.93687300000000	0.00000000000000	0.00000000000000	-23.44705300000000	0.00000000000000	
16.72662100000000	5.19041300000000	182.38320300000001	-11.51299500000000	0.38042200000000	0.00000000000000	0.11188100000000	-62.08547600000000	713.28832799999998	-55.87734900000000	0.11452600000000	0.00000000000000	-0.08845000000000	0.00000000000000	-11.84676000000000	0.00000000000000	0.00000000000000	-23.23740000000000	0.00000000000000	
16.72827400000000	6.76022300000000	191.52051399999999	-10.89023900000000	0.38240300000000	0.00000000000000	0.11226700000000	-62.29228700000000	706.43260399999997	-54.77966800000000	0.11417800000000	0.00000000000000	-0.08826600000000	0.00000000000000	-11.74098300000000	0.00000000000000	0.00000000000000	-23.02117500000000	0.00000000000000	
16.72993800000000	8.37406700000000	200.89265599999999	-10.23301200000000	0.38425300000000	0.00000000000000	0.11263900000000	-62.47733100000000	699.36220400000002	-53.64851600000000	0.11384800000000	0.00000000000000	-0.08807600000000	0.00000000000000	-11.61746200000000	0.00000000000000	0.00000000000000	-22.79837800000000	0.00000000000000	
16.73161500000000	10.03404300000000	210.48337500000000	-9.53752700000000	0.38597800000000	0.00000000000000	0.11299700000000	-62.63958800000000	692.07874000000004	-52.48530900000000	0.11353600000000	0.00000000000000	-0.08787800000000	0.00000000000000	-11.47336100000000	0.00000000000000	0.00000000000000	-22.56901200000000	0.00000000000000	
16.73327300000000	11.74244200000000	220.27315200000001	-8.79958100000000	0.38758700000000	0.00000000000000	0.11334300000000	-62.77802900000000	684.58411400000000	-51.29155100000000	0.11324200000000	0.00000000000000	-0.08767400000000	0.00000000000000	-11.30547500000000	0.00000000000000	0.00000000000000	-22.33308400000000	0.00000000000000	
16.73494300000000	13.50128500000000	230.24065300000001	-8.01505600000000	0.38908400000000	0.00000000000000	0.11367700000000	-62.89161900000000	676.88051399999995	-50.06882800000000	0.11296600000000	0.00000000000000	-0.08746200000000	0.00000000000000	-11.11058800000000	0.00000000000000	0.00000000000000	-22.09060400000000	0.00000000000000	
16.73662100000000	15.31197000000000	240.36400300000000	-7.18032300000000	0.39047500000000	0.00000000000000	0.11400000000000	-62.97931800000000	668.97041700000000	-48.81880900000000	0.11270700000000	0.00000000000000	-0.08724400000000	0.00000000000000	-10.88575800000000	0.00000000000000	0.00000000000000	-21.84158600000000	0.00000000000000	
16.73827200000000	17.17501500000000	250.62182400000000	-6.29255200000000	0.39176600000000	0.00000000000000	0.11431200000000	-63.04008300000000	660.85658699999999	-47.54324400000000	0.11246700000000	0.00000000000000	-0.08701800000000	0.00000000000000	-10.62854300000000	0.00000000000000	0.00000000000000	-21.58604800000000	0.00000000000000	
16.73993800000000	19.08991300000000	260.99401499999999	-5.34990000000000	0.39296200000000	0.00000000000000	0.11461300000000	-63.07287200000000	652.54207299999996	-46.24396100000000	0.11224400000000	0.00000000000000	-0.08678600000000	0.00000000000000	-10.33714400000000	0.00000000000000	0.00000000000000	-21.32401300000000	0.00000000000000	
16.74162100000000	21.05507800000000	271.46226100000001	-4.35160600000000	0.39406500000000	0.00000000000000	0.11490500000000	-63.07664900000000	644.03020900000001	-44.92286400000000	0.11204000000000	0.00000000000000	-0.08654600000000	0.00000000000000	-10.01048800000000	0.00000000000000	0.00000000000000	-21.05550900000000	0.00000000000000	
16.74327500000000	23.06787700000000	282.01029299999999	-3.29800000000000	0.39508000000000	0.00000000000000	0.11518700000000	-63.05038500000000	635.32461899999998	-43.58192800000000	0.11185300000000	0.00000000000000	-0.08630000000000	0.00000000000000	-9.64823900000000	0.00000000000000	0.00000000000000	-20.78057200000000	0.00000000000000	
16.74494600000000	25.12472300000000	292.62393200000002	-2.19043000000000	0.39601000000000	0.00000000000000	0.11546000000000	-62.99306700000000	626.42921799999999	-42.22319800000000	0.11168500000000	0.00000000000000	-0.08604600000000	0.00000000000000	-9.25076500000000	0.00000000000000	0.00000000000000	-20.49924200000000	0.00000000000000	
16.74662100000000	27.22121800000000	303.29095200000000	-1.03114600000000	0.39685900000000	0.00000000000000	0.11572300000000	-62.90369900000000	617.34822499999996	-40.84878100000000	0.11153400000000	0.00000000000000	-0.08578500000000	0.00000000000000	-8.81905800000000	0.00000000000000	0.00000000000000	-20.21156900000000	0.00000000000000	
16.74827400000000	29.35231100000000	314.00082700000002	0.17685700000000	0.39762900000000	0.00000000000000	0.11597800000000	-62.78131300000000	608.08616900000004	-39.46084100000000	0.11140200000000	0.00000000000000	-0.08551700000000	0.00000000000000	-8.35463900000000	0.00000000000000	0.00000000000000	-19.91760900000000	0.00000000000000	
